<svg width="20" height="24" viewBox="0 0 20 24" fill="none" xmlns="http://www.w3.org/2000/svg">
<path fill-rule="evenodd" clip-rule="evenodd" d="M1 24H20V1H19V23H1V24ZM18 0H0V22H18V0ZM17 1H1V21H17V1ZM15 17H3V18H15V17ZM15 14H3V15H15V14ZM15 11H3V12H15V11ZM7.652 7.137L8.6 7.437C8.455 7.966 8.213 8.359 7.875 8.615C7.537 8.872 7.108 9 6.588 9C5.945 9 5.417 8.78 5.003 8.341C4.589 7.902 4.382 7.301 4.382 6.539C4.382 5.733 4.59 5.107 5.006 4.661C5.422 4.215 5.969 3.992 6.648 3.992C7.24 3.992 7.721 4.167 8.091 4.517C8.312 4.724 8.477 5.022 8.587 5.409L7.619 5.64C7.562 5.389 7.442 5.191 7.261 5.046C7.079 4.9 6.858 4.828 6.598 4.828C6.239 4.828 5.948 4.957 5.724 5.214C5.501 5.472 5.389 5.889 5.389 6.466C5.389 7.079 5.499 7.515 5.72 7.774C5.94 8.034 6.226 8.164 6.578 8.164C6.838 8.164 7.062 8.082 7.249 7.916C7.436 7.751 7.571 7.491 7.652 7.137ZM10.675 8.917L8.944 4.075H10.004L11.23 7.659L12.416 4.075H13.453L11.719 8.917H10.675Z" fill="#1AB86B"/>
</svg>
